<?xml version="1.0" encoding="UTF-8"?><svg xmlns="http://www.w3.org/2000/svg" xmlns:xlink="http://www.w3.org/1999/xlink" data-name="Capa 1" height="470.4" preserveAspectRatio="xMidYMid meet" version="1.0" viewBox="-5.2 -3.8 326.7 470.4" width="326.7" zoomAndPan="magnify"><g id="change1_1"><path d="M314.9,460c-4.45,6.62-13.3-10-21.26-10s-8,12.84-15.94,12.84-8-12.84-15.93-12.84-8,12.84-15.94,12.84-8-12.84-15.94-12.84-8,12.84-15.93,12.84S206,450,198,450s-8,12.84-15.93,12.84-8-12.84-15.93-12.84-8,12.84-15.94,12.84-8-12.84-15.94-12.84-8,12.84-15.94,12.84-8-12.84-15.93-12.84-8,12.84-15.94,12.84S78.5,450,70.53,450s-8,12.84-15.94,12.84S46.62,450,38.65,450s-8,12.84-15.94,12.84-6.17-3.39-10.62-10C5.48,443,.34,444.58.34,432.74s12.84-11.84,12.84-23.68S.34,397.22.34,385.38s12.84-11.85,12.84-23.69S.34,349.85.34,338s12.84-11.84,12.84-23.68S.34,302.48.34,290.64,13.18,278.8,13.18,267,.34,255.12.34,243.28s12.84-11.85,12.84-23.69S.34,207.75.34,195.91s12.84-11.84,12.84-23.68S.34,160.39.34,148.55s12.84-11.85,12.84-23.69S.34,113,.34,101.17,13.18,89.33,13.18,77.49.34,65.65.34,53.8,13.18,42,13.18,30.11-5.17,12.67,1.44,2.84c4.44-6.61,13.29,10,21.26,10S30.67,0,38.63,0s8,12.84,15.94,12.84S62.54,0,70.51,0s8,12.84,15.93,12.84S94.41,0,102.38,0s8,12.84,15.93,12.84S126.28,0,134.24,0s8,12.84,15.94,12.84S158.15,0,166.12,0s8,12.84,15.93,12.84S190,0,198,0s8,12.84,15.94,12.84S221.9,0,229.87,0s8,12.84,15.93,12.84S253.77,0,261.74,0s8,12.84,15.94,12.84S285.66,0,293.63,0s6.16,3.39,10.61,10C310.86,19.83,316,18.26,316,30.1s-12.84,11.84-12.84,23.68S316,65.62,316,77.46s-12.84,11.85-12.84,23.69S316,113,316,124.83s-12.84,11.84-12.84,23.68S316,160.36,316,172.2,303.15,184,303.15,195.88,316,207.72,316,219.56s-12.84,11.85-12.84,23.69S316,255.09,316,266.93s-12.84,11.84-12.84,23.68S316,302.45,316,314.29,303.15,326.14,303.15,338,316,349.82,316,361.67s-12.84,11.84-12.84,23.68S316,397.2,316,409s-15.89,14.1-12.59,25.48C307.48,448.55,321.51,450.18,314.9,460Z" fill="#e8a4c9"/></g></svg>